<?xml version="1.0" encoding="utf-8"?>
<!-- Generator: Adobe Illustrator 15.1.0, SVG Export Plug-In  -->
<!DOCTYPE svg PUBLIC "-//W3C//DTD SVG 1.1//EN" "http://www.w3.org/Graphics/SVG/1.1/DTD/svg11.dtd" [
	<!ENTITY ns_flows "http://ns.adobe.com/Flows/1.0/">
]>
<svg version="1.1"
	 xmlns="http://www.w3.org/2000/svg" xmlns:xlink="http://www.w3.org/1999/xlink" xmlns:a="http://ns.adobe.com/AdobeSVGViewerExtensions/3.0/"
	 x="0px" y="0px" width="1024px" height="768px" viewBox="-4.772 -30.314 1024 768"
	 enable-background="new -4.772 -30.314 1024 768" xml:space="preserve">
<defs>
</defs>
<g id="XMLID_1_">
	<g>
		<path fill="#2996FF" d="M518.657,498.732c62.179-90.78,181.114-150.576,291.976-202.596c11.59,7.299,22.911,14.808,35.753,20.855
			C724.411,364.841,604.432,414.685,518.657,498.732z"/>
		<path fill="#2996FF" d="M500.78,495.753c-45.941-32.653-95.786-67.631-151.946-98.318c-55.505-30.33-116.046-56.22-178.761-77.463
			c5.453-10.517,26.695-20.885,32.773-20.855C322.258,344.551,420.577,411.109,500.78,495.753z"/>
		<path fill="#2996FF" d="M1013.228,549.381c-123.792-33.13-294.479-46.358-443.923-26.813c-16.386,49.188-107.465,54.969-122.153,0
			C296.666,503.41,124.667,515.596,0.25,549.381c5.452-35.245,18.234-63.191,23.835-98.318
			c168.631-4.767,309.048,18.711,434.985,56.608c-104.962-58.902-229.231-98.498-384.336-107.257
			c9.892-21.868,23.477-40.072,35.752-59.587c155.85,33.815,286.196,93.164,396.253,172.802
			c108.776-79.906,240.046-137.348,393.274-172.802c16.982,15.79,27.172,38.374,38.731,59.587
			c-153.466,9.385-279.344,46.418-381.356,107.257c124-38.881,264.626-61.137,432.005-56.608
			C994.995,486.189,1007.776,514.136,1013.228,549.381z"/>
	</g>
	<g>
	</g>
</g>
<rect x="59.835" y="37.265" fill="none" width="893.805" height="283.038"/>
<text transform="matrix(1 0 0 1 101.1797 278.5415)" fill="#808080" font-family="'AgencyFB-Reg'" font-size="315.8108">STORIAL</text>
</svg>
